<svg width="32" height="21" viewBox="0 0 32 21" fill="none" xmlns="http://www.w3.org/2000/svg">
<path fill-rule="evenodd" clip-rule="evenodd" d="M15.6264 17.1851C14.6315 18.2097 13.655 19.2572 12.5912 20.2109C11.3321 21.3384 9.32627 21.2424 8.11081 20.0325C5.72815 17.6608 3.35239 15.28 0.990406 12.8877C-0.358312 11.5223 -0.314657 9.41588 1.03866 8.06193C3.39834 5.70394 5.74653 3.33453 8.10392 0.976543C9.37222 -0.290501 11.4355 -0.333956 12.7268 0.901069C13.7125 1.84563 14.6568 2.83137 15.6195 3.7988C15.3898 4.13958 15.075 4.40259 14.7901 4.68848C13.7079 5.78399 12.6142 6.86807 11.5182 7.94986C11.123 8.34095 10.7876 8.76864 10.5969 9.29238C10.1948 10.3948 10.3005 11.4605 10.9829 12.4142C11.4861 13.1187 12.1616 13.6813 12.7635 14.3034C13.7033 15.2777 14.6706 16.2245 15.6264 17.1828V17.1851Z" fill="white"/>
<path fill-rule="evenodd" clip-rule="evenodd" d="M15.6587 3.80099C16.2722 3.29555 16.7983 2.70091 17.3589 2.14286C17.8162 1.68544 18.2642 1.21888 18.749 0.791191C19.4935 0.132511 20.401 -0.0733264 21.3569 0.0799082C22.0507 0.189688 22.6826 0.487009 23.2019 1.01533C24.9251 2.76723 26.6736 4.49169 28.4037 6.23445C29.1413 6.97775 29.9386 7.67074 30.5842 8.49638C31.4941 9.65821 31.517 11.2615 30.6187 12.453C30.0259 13.2421 29.2722 13.8916 28.5784 14.5892C27.1102 16.0643 25.6397 17.5372 24.16 19.0009C23.6545 19.4995 23.2042 20.0622 22.5999 20.4555C21.9588 20.8741 21.2443 21.0227 20.4837 20.945C19.822 20.8786 19.2384 20.6065 18.7169 20.2177C18.4503 20.0187 18.2435 19.7443 18.0069 19.5041C17.2533 18.7379 16.4996 17.9718 15.746 17.2079C15.7276 17.1896 15.6955 17.1873 15.6702 17.1781C15.6978 17.1438 15.7253 17.105 15.7552 17.0729C17.1591 15.6572 18.5675 14.2438 19.9714 12.8281C21.2259 11.5634 21.2213 9.40892 19.9622 8.14874C18.8363 7.02121 17.7082 5.89825 16.5846 4.77072C16.2699 4.4551 15.9689 4.12576 15.661 3.80099H15.6587Z" fill="white"/>
<path fill-rule="evenodd" clip-rule="evenodd" d="M15.6586 3.80113C15.9664 4.12361 16.2674 4.45523 16.5822 4.77085C17.7058 5.90067 18.8362 7.02363 19.9598 8.14887C21.2189 9.40906 21.2235 11.5635 19.9689 12.8282C18.5651 14.2439 17.1589 15.6597 15.7528 17.0731C15.7206 17.1051 15.6953 17.1417 15.6677 17.1783C15.654 17.1829 15.6379 17.1851 15.6241 17.1829C14.6683 16.2246 13.701 15.2777 12.7612 14.3034C12.1592 13.6813 11.4837 13.1164 10.9806 12.4143C10.2981 11.4606 10.1925 10.3971 10.5945 9.29241C10.7853 8.76867 11.1207 8.34099 11.5159 7.9499C12.6119 6.86811 13.7056 5.78403 14.7877 4.68852C15.0727 4.40034 15.3874 4.13733 15.6172 3.79884C15.631 3.79427 15.6425 3.79427 15.6563 3.79884L15.6586 3.80113Z" fill="white" fill-opacity="0.6"/>
</svg>
